<svg width="196" height="20" viewBox="0 0 196 20" fill="none" xmlns="http://www.w3.org/2000/svg">
<path d="M19.2041 0.00120069C18.0123 0.00120069 16.3423 0.614174 15.3831 1.32514C14.4235 2.03591 13.0365 3.6559 13.0365 5.88884C13.0365 8.1218 14.392 9.85805 14.392 9.85805C15.0871 10.7195 16.8364 12.5269 16.8364 12.5269C16.876 12.5692 16.8998 12.6247 16.8998 12.6855C16.8998 12.8203 16.7914 12.9313 16.6568 12.9313H0.679787V19.9975H19.8834C22.4943 19.9975 23.9502 18.5757 24.3493 18.1769C24.7457 17.7804 26.067 16.2926 26.067 13.8271C26.067 11.3642 24.9439 10.0904 24.4629 9.51181C24.0347 8.99378 22.3277 7.19694 21.9709 6.82427C21.9277 6.78722 21.9026 6.73322 21.9022 6.67626C21.9022 6.58904 21.9524 6.50975 22.0291 6.48332H31.278V19.9975H38.3892V6.51767H47.0225V0.00120069H19.2041ZM81.2271 8.18806L76.8642 8.19066C76.8642 8.19066 76.748 8.1563 76.748 8.02415L76.7454 5.82291C76.7454 5.69076 76.8617 5.65641 76.8617 5.65641H80.8626C81.3275 5.65641 82.2683 5.88899 82.2683 6.96449C82.2683 8.04 81.2273 8.18801 81.2273 8.18801L81.2271 8.18806ZM86.9828 12.9182C85.7934 12.9129 85.7091 12.44 85.7091 12.3713C85.7091 12.2497 85.8569 12.1731 85.8569 12.1731C86.3035 11.959 87.2152 11.248 87.2152 11.248C89.1497 9.7419 89.3822 7.67547 89.3822 6.56824C89.3822 5.45818 89.2155 3.49482 87.2312 1.77462C85.2465 0.0542144 82.7334 0.00135889 82.7334 0.00135889H68.762V19.884C68.762 19.9474 68.8204 19.9978 68.8838 19.9978H76.6608V14.4244C76.6608 14.324 76.8114 14.4244 76.8114 14.4244L80.8626 18.4915C82.3026 19.9473 84.6836 19.9976 84.6836 19.9976H96.6412V12.9187H86.9827L86.9828 12.9182ZM57.4187 11.6647H54.4932C54.3849 11.6647 54.3164 11.5484 54.3164 11.4374C54.3164 11.3951 55.8727 6.37966 55.8727 6.37966C55.9282 6.19201 55.9439 6.18651 55.9546 6.18651H55.9572C55.9678 6.18651 55.9837 6.19202 56.0392 6.37966C56.0392 6.37966 57.5955 11.3953 57.5955 11.4374C57.5955 11.5484 57.5243 11.6647 57.4186 11.6647H57.4187ZM61.3559 0.177511C61.3272 0.0760935 61.2365 0.0046292 61.1312 0.000427246H50.3894C50.2837 0.00569769 50.1938 0.077077 50.1647 0.174874C50.1647 0.174874 44.2322 19.7826 44.2322 19.8196C44.2322 19.9174 44.3115 19.9967 44.409 19.9967H51.5098C51.568 19.9784 51.6101 19.9227 51.6233 19.8619L52.4505 17.2169C52.4777 17.1513 52.5408 17.1079 52.6118 17.1058H59.16C59.2313 17.1107 59.2943 17.1544 59.3238 17.2195L60.1696 19.8619C60.1826 19.9229 60.2249 19.9782 60.2804 19.9993L67.2673 19.9968C67.3651 19.9968 67.4444 19.9228 67.4444 19.8223C67.4444 19.7906 61.3559 0.177546 61.3559 0.177546" fill="#DBA90D"/>
<path d="M140.328 11.6653H137.402C137.299 11.6653 137.225 11.549 137.225 11.438C137.225 11.3986 138.782 6.38024 138.782 6.38024C138.837 6.19258 138.843 6.1871 138.864 6.1871H138.866C138.89 6.1871 138.893 6.19256 138.948 6.38024C138.948 6.38024 140.505 11.3986 140.505 11.438C140.505 11.549 140.425 11.6653 140.328 11.6653H140.328ZM144.273 0.183305C144.243 0.0817562 144.154 0.0091656 144.048 0.000931645H133.306C133.201 0.00925488 133.113 0.0804558 133.081 0.180669C133.081 0.180669 127.143 19.7834 127.143 19.8205C127.143 19.9181 127.22 19.9974 127.321 19.9974H134.421C134.478 19.9737 134.52 19.9232 134.532 19.8626L135.359 17.2202C135.385 17.1533 135.449 17.1084 135.521 17.1063L142.072 17.1012C142.143 17.1065 142.206 17.1567 142.233 17.2201L143.078 19.8626C143.092 19.9236 143.134 19.9789 143.189 20L150.177 19.9977C150.274 19.9977 150.356 19.9237 150.356 19.8259C150.356 19.7916 144.273 0.183569 144.273 0.183569V0.183305ZM164.515 8.18713L160.152 8.18974C160.152 8.18974 160.036 8.15537 160.036 8.02322L160.034 5.82197C160.034 5.68981 160.15 5.65545 160.15 5.65545H164.151C164.616 5.65545 165.557 5.88803 165.557 6.96355C165.557 8.03907 164.515 8.18708 164.515 8.18708L164.515 8.18713ZM185.434 6.48273H195.32V8.7891e-05H182.609C181.42 8.7891e-05 179.747 0.613285 178.788 1.32406C177.829 2.03484 176.441 3.65481 176.441 5.88778C176.441 8.12076 177.797 9.85705 177.797 9.85705C178.492 10.7185 180.242 12.5129 180.242 12.5129C180.281 12.5552 180.305 12.6105 180.305 12.6741C180.305 12.8087 180.197 12.9171 180.062 12.9171H170.271C169.079 12.9118 168.997 12.4389 168.997 12.3702C168.997 12.2486 169.145 12.172 169.145 12.172C169.592 11.9579 170.503 11.2469 170.503 11.2469C172.438 9.74075 172.671 7.67428 172.671 6.56704C172.671 5.45696 172.504 3.4936 170.519 1.77338C168.535 0.0529582 166.022 0.00537893 166.022 0.00537893H152.05V19.8831C152.05 19.9464 152.108 19.9966 152.172 19.9966H159.949V14.4208C159.949 14.3232 160.099 14.4208 160.099 14.4208L164.151 18.4905C165.591 19.9464 167.972 19.9966 167.972 19.9966L183.288 19.9943C185.902 19.9943 187.355 18.5727 187.754 18.1763C188.151 17.7772 189.475 16.2896 189.475 13.824C189.475 11.3611 188.349 10.1005 187.868 9.52192C187.44 9.00388 185.733 7.19623 185.376 6.82092C185.332 6.78533 185.307 6.73201 185.307 6.67574C185.307 6.58832 185.358 6.5066 185.434 6.48261V6.48273ZM123.594 19.9965C123.647 19.9965 123.684 19.9595 123.7 19.9014C123.7 19.9014 129.717 0.137446 129.717 0.118741C129.717 0.065881 129.685 0.00794489 129.635 0.00265431H122.217C122.18 0.00265431 122.156 0.0317561 122.149 0.0713851C122.149 0.0739771 120.613 5.2111 120.613 5.21375C120.603 5.25604 120.581 5.28246 120.544 5.28246C120.507 5.28246 120.476 5.24546 120.47 5.21375L118.864 0.0687308C118.859 0.0341649 118.832 0.00265431 118.795 0.00265431L110.603 7.03128e-05C110.579 0.00669434 110.559 0.0243405 110.55 0.0476369L109.11 5.21107C109.102 5.25601 109.078 5.28244 109.039 5.28244C109.004 5.28158 108.975 5.25604 108.97 5.22166L107.442 0.0634397C107.439 0.0310741 107.414 0.00515234 107.382 0H99.475C99.4102 0.001152 99.3583 0.0539289 99.3587 0.118741C99.3587 0.129282 99.3613 0.150452 99.3613 0.150452L105.468 19.9014C105.484 19.9595 105.521 19.9965 105.574 19.9965L112.141 19.9988C112.181 19.9935 112.22 19.9486 112.231 19.901C112.233 19.901 114.517 12.5519 114.517 12.5519C114.53 12.507 114.548 12.4808 114.585 12.4808C114.625 12.4808 114.646 12.5123 114.657 12.5493L116.884 19.9327C116.898 19.9709 116.934 19.9964 116.974 19.9962H123.594" fill="#DBA90D"/>
</svg>
